Coordinates
version=1
nRows=14
nColumns=46
inDegrees=yes

Units are S.I. units (second, meters, Newtons, ...)
Angles are in degrees.

endheader
time	pelvis_tilt	pelvis_list	pelvis_rotation	pelvis_tx	pelvis_ty	pelvis_tz	bb_angle	bb_tx	bb_ty	bb_tz	hip_flexion_r	hip_adduction_r	hip_rotation_r	knee_angle_r	knee_angle_r_beta	ankle_angle_r	subtalar_angle_r	mtp_angle_r	crank_angle_r	hip_flexion_l	hip_adduction_l	hip_rotation_l	knee_angle_l	knee_angle_l_beta	ankle_angle_l	subtalar_angle_l	mtp_angle_l	crank_angle_l	lumbar_extension	lumbar_bending	lumbar_rotation	arm_flex_r	arm_add_r	arm_rot_r	elbow_flex_r	pro_sup_r	wrist_flex_r	wrist_dev_r	arm_flex_l	arm_add_l	arm_rot_l	elbow_flex_l	pro_sup_l	wrist_flex_l	wrist_dev_l
      2.50500000	    -16.60053795	     -6.27166683	     -4.83234205	      0.16546339	      1.18205294	     -0.24571166	      0.00000000	      0.50000000	      0.00000000	      0.25000000	     67.70156323	     -3.01520222	     -8.27593344	     96.24575728	      1.67980536	     -1.63540224	     -4.40784703	      0.00000000	      0.00000000	     52.42607400	     -8.38729635	      8.13862965	     43.02504593	      0.75092871	      5.60585429	    -16.07213244	      0.00000000	      0.00000000	    -57.85013485	      1.97047710	     13.10221435	     89.75070143	    -10.29416759	     28.84310170	     39.01861219	     19.15680804	      0.00000000	      0.00000000	     89.17707597	      6.97367633	     16.92016369	     34.59902004	     18.94821876	      0.00000000	      0.00000000
      2.51000000	    -16.24899955	     -6.53380614	     -5.08034406	      0.16982192	      1.18025975	     -0.24627902	      0.00000000	      0.50000000	      0.00000000	      0.25000000	     67.89256215	     -2.89614249	     -8.30454245	     97.37092810	      1.69944329	     -1.68192255	     -4.30008649	      0.00000000	      0.00000000	     51.62865449	     -8.65274414	      8.31128319	     43.19609353	      0.75391406	      5.74390501	    -16.34078041	      0.00000000	      0.00000000	    -57.99612473	      2.06248227	     13.52081206	     89.73390178	    -10.36583250	     29.00726273	     38.69056502	     19.17878814	      0.00000000	      0.00000000	     88.96621774	      7.08756349	     16.94956054	     34.32494755	     19.02040341	      0.00000000	      0.00000000
      2.51500000	    -15.94996733	     -6.78258358	     -5.24978987	      0.17444883	      1.17839919	     -0.24672048	      0.00000000	      0.50000000	      0.00000000	      0.25000000	     68.11209366	     -2.77997730	     -8.29562048	     98.46726165	      1.71857792	     -1.76538056	     -4.24848248	      0.00000000	      0.00000000	     50.90163498	     -8.88190477	      8.44919481	     43.36090018	      0.75679047	      5.78703971	    -16.46172528	      0.00000000	      0.00000000	    -58.09861966	      2.23015414	     13.86504721	     89.71114300	    -10.35715343	     29.10568183	     38.56822763	     19.18017287	      0.00000000	      0.00000000	     88.68617341	      7.07526657	     16.94549838	     34.16285427	     19.02395345	      0.00000000	      0.00000000
      2.52000000	    -15.51254087	     -7.06135606	     -5.40666221	      0.17910021	      1.17674688	     -0.24725358	      0.00000000	      0.50000000	      0.00000000	      0.25000000	     68.14176178	     -2.66699417	     -8.31644258	     99.52902427	      1.73710917	     -1.75178659	     -4.16012253	      0.00000000	      0.00000000	     50.08974938	     -9.13925374	      8.50830100	     43.69072764	      0.76254705	      5.96446851	    -16.72279549	      0.00000000	      0.00000000	    -58.30245421	      2.41447916	     14.25527266	     89.68909283	    -10.38160483	     29.32206554	     38.22170557	     19.15600966	      0.00000000	      0.00000000	     88.29940415	      7.18714421	     16.98443419	     33.92778560	     19.03638585	      0.00000000	      0.00000000
      2.52500000	    -15.00943685	     -7.33647562	     -5.56370474	      0.18383401	      1.17533153	     -0.24773785	      0.00000000	      0.50000000	      0.00000000	      0.25000000	     68.04062543	     -2.57948727	     -8.38399213	    100.51732045	      1.75435820	     -1.46834363	     -3.91031379	      0.00000000	      0.00000000	     49.18763481	     -9.42302102	      8.51245300	     43.98327465	      0.76765296	      6.06593030	    -16.94792149	      0.00000000	      0.00000000	    -58.48767169	      2.47997222	     14.73197659	     89.67978597	    -10.56454430	     30.17404820	     37.02146210	     19.08446958	      0.00000000	      0.00000000	     87.93748860	      7.57188308	     17.14863909	     33.46186996	     19.14742652	      0.00000000	      0.00000000
      2.53000000	    -14.68365798	     -7.50174705	     -5.67690095	      0.18856848	      1.17364376	     -0.24815636	      0.00000000	      0.50000000	      0.00000000	      0.25000000	     68.17011520	     -2.56198334	     -8.36908065	    101.51646390	      1.77179654	     -1.46029082	     -3.87907225	      0.00000000	      0.00000000	     48.49686523	     -9.58388250	      8.53310469	     44.29635282	      0.77311720	      5.98482294	    -17.01871729	      0.00000000	      0.00000000	    -58.57412467	      2.63791264	     14.93905237	     89.65432621	    -10.54630834	     30.52214317	     36.73958522	     19.09433139	      0.00000000	      0.00000000	     87.46651528	      7.59186749	     17.18433697	     33.23508586	     19.18075579	      0.00000000	      0.00000000
      2.53500000	    -14.33033805	     -7.67869903	     -5.77367756	      0.19342721	      1.17218229	     -0.24851523	      0.00000000	      0.50000000	      0.00000000	      0.25000000	     68.22804557	     -2.52195916	     -8.34366834	    102.46033572	      1.78827021	     -1.30259562	     -3.85339266	      0.00000000	      0.00000000	     47.76065977	     -9.75768519	      8.51159936	     44.57813338	      0.77803520	      5.96465906	    -17.11832797	      0.00000000	      0.00000000	    -58.52877415	      2.71373671	     15.07319816	     89.66964872	    -11.27185103	     34.85308660	     35.15873829	     20.01441060	      0.00000000	      0.00000000	     86.95001403	      7.50523129	     17.77726825	     32.67633907	     20.54267854	      0.00000000	      0.00000000
      2.54000000	    -14.01214746	     -7.80543844	     -5.87686994	      0.19801140	      1.17073364	     -0.24881880	      0.00000000	      0.50000000	      0.00000000	      0.25000000	     68.35418953	     -2.57180063	     -8.37202032	    103.36117658	      1.80399285	     -1.35706076	     -3.90419527	      0.00000000	      0.00000000	     47.09911276	     -9.89693623	      8.45576548	     44.90651419	      0.78376653	      5.79342059	    -17.19006558	      0.00000000	      0.00000000	    -58.65991987	      2.80746502	     15.24329348	     89.63378327	    -11.22441848	     34.93216597	     35.04360237	     20.03901664	      0.00000000	      0.00000000	     86.39841621	      7.62304929	     17.84686181	     32.57416035	     20.58836608	      0.00000000	      0.00000000
      2.54500000	    -13.40840361	     -7.96428560	     -5.88406391	      0.20317700	      1.17019110	     -0.24919720	      0.00000000	      0.50000000	      0.00000000	      0.25000000	     68.08822571	     -2.57254826	     -8.32030245	    104.21155724	      1.81883479	     -1.28437897	     -3.85483148	      0.00000000	      0.00000000	     46.01399083	    -10.02261709	      8.37155523	     45.06786944	      0.78658271	      5.58392832	    -17.40333048	      0.00000000	      0.00000000	    -59.03617855	      2.90512524	     15.41008643	     89.61543677	    -11.07663348	     35.54568440	     34.04300442	     20.08497003	      0.00000000	      0.00000000	     85.73753294	      7.58674551	     18.04954364	     32.86225365	     20.93173890	      0.00000000	      0.00000000
      2.55000000	    -13.10675969	     -8.09287796	     -5.95226771	      0.20793877	      1.16891856	     -0.24951649	      0.00000000	      0.50000000	      0.00000000	      0.25000000	     68.24865162	     -2.62396882	     -8.31218692	    105.08012116	      1.83399409	     -1.44018606	     -3.86634819	      0.00000000	      0.00000000	     45.35528278	    -10.14397554	      8.33025948	     45.39321014	      0.79226098	      5.38636692	    -17.42730950	      0.00000000	      0.00000000	    -59.14803267	      3.03920875	     15.54509184	     89.56094363	    -10.97713318	     35.68050421	     33.93462490	     20.10682164	      0.00000000	      0.00000000	     85.24415559	      7.56099345	     18.07516154	     32.79633086	     20.96949699	      0.00000000	      0.00000000
      2.55500000	    -12.72172967	     -8.19990946	     -6.02238194	      0.21294957	      1.16810984	     -0.24965966	      0.00000000	      0.50000000	      0.00000000	      0.25000000	     68.29428814	     -2.68635514	     -8.31819876	    105.89994438	      1.84830271	     -1.69151172	     -3.93646960	      0.00000000	      0.00000000	     44.51587787	    -10.27036498	      8.19224294	     45.57806042	      0.79548722	      5.02357239	    -17.66723077	      0.00000000	      0.00000000	    -59.23702430	      3.15863480	     15.21626509	     89.57401711	    -10.27290558	     37.75972445	     32.07014282	     20.44759318	      0.00000000	      0.00000000	     84.14349976	      6.72106848	     18.14924687	     33.94087500	     21.92709147	      0.00000000	      0.00000000
      2.56000000	    -12.37393344	     -8.35633982	     -6.06195775	      0.21787121	      1.16725772	     -0.24989739	      0.00000000	      0.50000000	      0.00000000	      0.25000000	     68.43228709	     -2.76634690	     -8.31640230	    106.68784856	      1.86205423	     -2.05870257	     -3.81283315	      0.00000000	      0.00000000	     43.76912121	    -10.42279078	      8.13172552	     45.85745273	      0.80036354	      4.76942269	    -17.64767166	      0.00000000	      0.00000000	    -59.42654337	      3.30989667	     15.39421179	     89.50685030	    -10.24039704	     37.86889887	     32.00206095	     20.48323002	      0.00000000	      0.00000000	     83.63896737	      6.73416924	     18.16828485	     33.86437850	     21.96821213	      0.00000000	      0.00000000
      2.56500000	    -11.98086666	     -8.47575634	     -6.13730229	      0.22270437	      1.16683277	     -0.25008153	      0.00000000	      0.50000000	      0.00000000	      0.25000000	     68.47939815	     -2.81075740	     -8.31325336	    107.40939824	      1.87464765	     -2.39362116	     -3.85368054	      0.00000000	      0.00000000	     42.87661089	    -10.57628259	      7.98502300	     45.96080117	      0.80216731	      4.37343921	    -17.83101836	      0.00000000	      0.00000000	    -59.61123658	      3.41750727	     15.22493002	     89.51617773	     -9.87145269	     40.09808960	     30.65918866	     21.17139552	      0.00000000	      0.00000000	     82.57198792	      6.13630869	     18.29389505	     34.95482898	     23.16055735	      0.00000000	      0.00000000
      2.57000000	    -11.60426355	     -8.63463882	     -6.22104360	      0.22755777	      1.16677257	     -0.25038982	      0.00000000	      0.50000000	      0.00000000	      0.25000000	     68.50926210	     -2.80307487	     -8.28313144	    108.03595767	      1.88558317	     -2.95711023	     -3.76232494	      0.00000000	      0.00000000	     41.94445872	    -10.75430509	      7.88130667	     45.98241615	      0.80254456	      3.98442059	    -17.84361087	      0.00000000	      0.00000000	    -59.89727707	      3.49764188	     15.36848762	     89.45901986	     -9.85476934	     40.42091042	     30.41344227	     21.29287710	      0.00000000	      0.00000000	     82.06757342	      6.08434851	     18.31114503	     34.97226230	     23.34462615	      0.00000000	      0.00000000
